<?xml version="1.0" encoding="UTF-8" ?>
<svg version="1.1" width="256" height="256" xmlns="http://www.w3.org/2000/svg" shape-rendering="crispEdges">
<rect x="148" y="70" width="16" height="27" fill="#000000" />
<rect x="145" y="71" width="3" height="98" fill="#000000" />
<rect x="164" y="71" width="6" height="43" fill="#000000" />
<rect x="143" y="72" width="2" height="97" fill="#000000" />
<rect x="170" y="72" width="3" height="97" fill="#000000" />
<rect x="141" y="73" width="2" height="96" fill="#000000" />
<rect x="173" y="73" width="2" height="95" fill="#000000" />
<rect x="140" y="74" width="1" height="95" fill="#000000" />
<rect x="175" y="74" width="1" height="8" fill="#000000" />
<rect x="107" y="75" width="7" height="25" fill="#000000" />
<rect x="135" y="75" width="5" height="94" fill="#000000" />
<rect x="176" y="75" width="1" height="4" fill="#000000" />
<rect x="106" y="76" width="1" height="24" fill="#000000" />
<rect x="114" y="76" width="4" height="49" fill="#000000" />
<rect x="125" y="76" width="10" height="93" fill="#000000" />
<rect x="105" y="77" width="1" height="23" fill="#000000" />
<rect x="118" y="77" width="7" height="50" fill="#000000" />
<rect x="177" y="78" width="5" height="3" fill="#5B6EE1" />
<rect x="84" y="79" width="10" height="20" fill="#000000" />
<rect x="176" y="79" width="1" height="5" fill="#5B6EE1" />
<rect x="82" y="80" width="2" height="20" fill="#000000" />
<rect x="94" y="80" width="1" height="82" fill="#000000" />
<rect x="182" y="80" width="2" height="22" fill="#000000" />
<rect x="80" y="81" width="2" height="77" fill="#000000" />
<rect x="95" y="81" width="1" height="82" fill="#000000" />
<rect x="177" y="81" width="4" height="3" fill="#5B6EE1" />
<rect x="181" y="81" width="1" height="82" fill="#000000" />
<rect x="184" y="81" width="2" height="19" fill="#000000" />
<rect x="79" y="82" width="1" height="28" fill="#000000" />
<rect x="96" y="82" width="1" height="81" fill="#000000" />
<rect x="103" y="82" width="2" height="19" fill="#000000" />
<rect x="175" y="82" width="1" height="2" fill="#5B6EE1" />
<rect x="186" y="82" width="1" height="17" fill="#000000" />
<rect x="78" y="83" width="1" height="26" fill="#000000" />
<rect x="97" y="83" width="1" height="24" fill="#000000" />
<rect x="102" y="83" width="1" height="19" fill="#000000" />
<rect x="187" y="83" width="1" height="15" fill="#000000" />
<rect x="77" y="84" width="1" height="24" fill="#000000" />
<rect x="98" y="84" width="4" height="19" fill="#000000" />
<rect x="175" y="84" width="6" height="79" fill="#000000" />
<rect x="76" y="85" width="1" height="23" fill="#000000" />
<rect x="188" y="85" width="2" height="11" fill="#000000" />
<rect x="190" y="86" width="1" height="9" fill="#000000" />
<rect x="72" y="87" width="4" height="21" fill="#000000" />
<rect x="191" y="87" width="2" height="7" fill="#000000" />
<rect x="202" y="87" width="1" height="2" fill="#000000" />
<rect x="71" y="88" width="1" height="26" fill="#000000" />
<rect x="193" y="88" width="1" height="5" fill="#000000" />
<rect x="200" y="88" width="2" height="1" fill="#000000" />
<rect x="203" y="88" width="2" height="1" fill="#000000" />
<rect x="70" y="89" width="1" height="29" fill="#000000" />
<rect x="194" y="89" width="1" height="3" fill="#000000" />
<rect x="198" y="89" width="3" height="1" fill="#222034" />
<rect x="201" y="89" width="3" height="3" fill="#CBDBFC" />
<rect x="204" y="89" width="1" height="4" fill="#000000" />
<rect x="69" y="90" width="1" height="68" fill="#000000" />
<rect x="195" y="90" width="1" height="2" fill="#000000" />
<rect x="197" y="90" width="3" height="1" fill="#222034" />
<rect x="200" y="90" width="1" height="2" fill="#595652" />
<rect x="196" y="91" width="1" height="1" fill="#000000" />
<rect x="197" y="91" width="1" height="1" fill="#222034" />
<rect x="198" y="91" width="2" height="1" fill="#595652" />
<rect x="68" y="92" width="1" height="65" fill="#000000" />
<rect x="194" y="92" width="3" height="1" fill="#222034" />
<rect x="197" y="92" width="2" height="1" fill="#595652" />
<rect x="199" y="92" width="2" height="1" fill="#9BADB7" />
<rect x="201" y="92" width="2" height="12" fill="#CBDBFC" />
<rect x="203" y="92" width="1" height="13" fill="#000000" />
<rect x="193" y="93" width="2" height="1" fill="#222034" />
<rect x="195" y="93" width="3" height="1" fill="#595652" />
<rect x="198" y="93" width="1" height="1" fill="#9BADB7" />
<rect x="199" y="93" width="2" height="12" fill="#CBDBFC" />
<rect x="191" y="94" width="1" height="1" fill="#000000" />
<rect x="192" y="94" width="2" height="1" fill="#222034" />
<rect x="194" y="94" width="2" height="1" fill="#595652" />
<rect x="196" y="94" width="2" height="1" fill="#9BADB7" />
<rect x="198" y="94" width="1" height="12" fill="#CBDBFC" />
<rect x="190" y="95" width="3" height="1" fill="#222034" />
<rect x="193" y="95" width="2" height="1" fill="#595652" />
<rect x="195" y="95" width="1" height="2" fill="#696A6A" />
<rect x="196" y="95" width="1" height="2" fill="#9BADB7" />
<rect x="197" y="95" width="1" height="11" fill="#CBDBFC" />
<rect x="188" y="96" width="1" height="2" fill="#000000" />
<rect x="189" y="96" width="2" height="1" fill="#222034" />
<rect x="191" y="96" width="2" height="1" fill="#595652" />
<rect x="193" y="96" width="2" height="1" fill="#696A6A" />
<rect x="148" y="97" width="1" height="1" fill="#000000" />
<rect x="149" y="97" width="5" height="3" fill="#AC3232" />
<rect x="154" y="97" width="10" height="1" fill="#000000" />
<rect x="189" y="97" width="1" height="1" fill="#222034" />
<rect x="190" y="97" width="2" height="1" fill="#595652" />
<rect x="192" y="97" width="2" height="1" fill="#696A6A" />
<rect x="194" y="97" width="2" height="1" fill="#847E87" />
<rect x="196" y="97" width="1" height="10" fill="#CBDBFC" />
<rect x="148" y="98" width="1" height="1" fill="#AC3232" />
<rect x="154" y="98" width="2" height="6" fill="#AC3232" />
<rect x="156" y="98" width="8" height="1" fill="#000000" />
<rect x="187" y="98" width="2" height="1" fill="#222034" />
<rect x="189" y="98" width="2" height="2" fill="#595652" />
<rect x="191" y="98" width="2" height="1" fill="#696A6A" />
<rect x="193" y="98" width="2" height="1" fill="#847E87" />
<rect x="195" y="98" width="1" height="1" fill="#9BADB7" />
<rect x="66" y="99" width="2" height="56" fill="#000000" />
<rect x="84" y="99" width="1" height="1" fill="#000000" />
<rect x="85" y="99" width="2" height="5" fill="#5B6EE1" />
<rect x="87" y="99" width="7" height="60" fill="#000000" />
<rect x="148" y="99" width="1" height="70" fill="#000000" />
<rect x="156" y="99" width="1" height="7" fill="#AC3232" />
<rect x="157" y="99" width="7" height="1" fill="#000000" />
<rect x="186" y="99" width="2" height="1" fill="#222034" />
<rect x="188" y="99" width="1" height="2" fill="#595652" />
<rect x="191" y="99" width="1" height="1" fill="#696A6A" />
<rect x="192" y="99" width="2" height="2" fill="#847E87" />
<rect x="194" y="99" width="1" height="2" fill="#9BADB7" />
<rect x="195" y="99" width="1" height="7" fill="#CBDBFC" />
<rect x="65" y="100" width="1" height="52" fill="#000000" />
<rect x="82" y="100" width="1" height="59" fill="#000000" />
<rect x="83" y="100" width="2" height="3" fill="#5B6EE1" />
<rect x="105" y="100" width="4" height="4" fill="#AC3232" />
<rect x="109" y="100" width="5" height="1" fill="#000000" />
<rect x="149" y="100" width="1" height="69" fill="#000000" />
<rect x="150" y="100" width="4" height="1" fill="#AC3232" />
<rect x="157" y="100" width="2" height="7" fill="#AC3232" />
<rect x="159" y="100" width="5" height="1" fill="#000000" />
<rect x="184" y="100" width="3" height="1" fill="#222034" />
<rect x="187" y="100" width="1" height="2" fill="#595652" />
<rect x="189" y="100" width="2" height="2" fill="#696A6A" />
<rect x="191" y="100" width="1" height="4" fill="#847E87" />
<rect x="64" y="101" width="1" height="44" fill="#000000" />
<rect x="103" y="101" width="2" height="6" fill="#AC3232" />
<rect x="109" y="101" width="1" height="2" fill="#AC3232" />
<rect x="110" y="101" width="4" height="20" fill="#000000" />
<rect x="150" y="101" width="1" height="68" fill="#000000" />
<rect x="151" y="101" width="3" height="1" fill="#AC3232" />
<rect x="159" y="101" width="1" height="7" fill="#AC3232" />
<rect x="160" y="101" width="4" height="1" fill="#000000" />
<rect x="184" y="101" width="2" height="1" fill="#222034" />
<rect x="186" y="101" width="1" height="6" fill="#595652" />
<rect x="188" y="101" width="1" height="7" fill="#696A6A" />
<rect x="192" y="101" width="1" height="2" fill="#847E87" />
<rect x="193" y="101" width="1" height="3" fill="#9BADB7" />
<rect x="194" y="101" width="1" height="5" fill="#CBDBFC" />
<rect x="63" y="102" width="1" height="41" fill="#000000" />
<rect x="102" y="102" width="1" height="7" fill="#AC3232" />
<rect x="151" y="102" width="1" height="67" fill="#000000" />
<rect x="152" y="102" width="2" height="1" fill="#AC3232" />
<rect x="160" y="102" width="1" height="5" fill="#AC3232" />
<rect x="161" y="102" width="3" height="1" fill="#000000" />
<rect x="182" y="102" width="1" height="60" fill="#000000" />
<rect x="183" y="102" width="2" height="1" fill="#222034" />
<rect x="185" y="102" width="1" height="4" fill="#595652" />
<rect x="187" y="102" width="1" height="4" fill="#696A6A" />
<rect x="189" y="102" width="1" height="1" fill="#696A6A" />
<rect x="190" y="102" width="1" height="6" fill="#847E87" />
<rect x="62" y="103" width="1" height="39" fill="#000000" />
<rect x="83" y="103" width="1" height="56" fill="#000000" />
<rect x="84" y="103" width="1" height="1" fill="#5B6EE1" />
<rect x="98" y="103" width="2" height="1" fill="#000000" />
<rect x="100" y="103" width="2" height="7" fill="#AC3232" />
<rect x="109" y="103" width="1" height="18" fill="#000000" />
<rect x="152" y="103" width="2" height="66" fill="#000000" />
<rect x="161" y="103" width="1" height="5" fill="#AC3232" />
<rect x="162" y="103" width="2" height="2" fill="#000000" />
<rect x="183" y="103" width="1" height="59" fill="#000000" />
<rect x="184" y="103" width="1" height="1" fill="#595652" />
<rect x="189" y="103" width="1" height="4" fill="#847E87" />
<rect x="192" y="103" width="1" height="5" fill="#9BADB7" />
<rect x="61" y="104" width="1" height="36" fill="#000000" />
<rect x="84" y="104" width="3" height="55" fill="#000000" />
<rect x="98" y="104" width="1" height="1" fill="#000000" />
<rect x="99" y="104" width="1" height="7" fill="#AC3232" />
<rect x="105" y="104" width="3" height="1" fill="#AC3232" />
<rect x="108" y="104" width="1" height="18" fill="#000000" />
<rect x="154" y="104" width="1" height="65" fill="#000000" />
<rect x="155" y="104" width="1" height="1" fill="#AC3232" />
<rect x="184" y="104" width="1" height="58" fill="#000000" />
<rect x="191" y="104" width="1" height="2" fill="#9BADB7" />
<rect x="193" y="104" width="1" height="3" fill="#CBDBFC" />
<rect x="201" y="104" width="2" height="2" fill="#000000" />
<rect x="60" y="105" width="1" height="31" fill="#000000" />
<rect x="98" y="105" width="1" height="5" fill="#AC3232" />
<rect x="105" y="105" width="1" height="1" fill="#AC3232" />
<rect x="106" y="105" width="2" height="18" fill="#000000" />
<rect x="155" y="105" width="1" height="64" fill="#000000" />
<rect x="162" y="105" width="1" height="2" fill="#AC3232" />
<rect x="163" y="105" width="1" height="11" fill="#000000" />
<rect x="199" y="105" width="1" height="1" fill="#CBDBFC" />
<rect x="200" y="105" width="1" height="41" fill="#000000" />
<rect x="59" y="106" width="1" height="27" fill="#000000" />
<rect x="105" y="106" width="1" height="65" fill="#000000" />
<rect x="156" y="106" width="1" height="63" fill="#000000" />
<rect x="185" y="106" width="1" height="55" fill="#000000" />
<rect x="187" y="106" width="1" height="2" fill="#595652" />
<rect x="191" y="106" width="1" height="2" fill="#847E87" />
<rect x="194" y="106" width="2" height="2" fill="#9BADB7" />
<rect x="197" y="106" width="2" height="1" fill="#9BADB7" />
<rect x="199" y="106" width="1" height="41" fill="#000000" />
<rect x="58" y="107" width="1" height="24" fill="#000000" />
<rect x="97" y="107" width="1" height="1" fill="#AC3232" />
<rect x="103" y="107" width="1" height="1" fill="#AC3232" />
<rect x="104" y="107" width="1" height="64" fill="#000000" />
<rect x="157" y="107" width="1" height="62" fill="#000000" />
<rect x="158" y="107" width="1" height="1" fill="#AC3232" />
<rect x="160" y="107" width="1" height="13" fill="#000000" />
<rect x="162" y="107" width="1" height="10" fill="#000000" />
<rect x="186" y="107" width="1" height="53" fill="#000000" />
<rect x="189" y="107" width="1" height="2" fill="#696A6A" />
<rect x="193" y="107" width="1" height="1" fill="#9BADB7" />
<rect x="196" y="107" width="2" height="1" fill="#9BADB7" />
<rect x="198" y="107" width="1" height="41" fill="#000000" />
<rect x="57" y="108" width="1" height="22" fill="#000000" />
<rect x="72" y="108" width="3" height="1" fill="#000000" />
<rect x="75" y="108" width="3" height="13" fill="#222034" />
<rect x="97" y="108" width="1" height="56" fill="#000000" />
<rect x="103" y="108" width="1" height="62" fill="#000000" />
<rect x="158" y="108" width="2" height="13" fill="#000000" />
<rect x="161" y="108" width="1" height="11" fill="#000000" />
<rect x="187" y="108" width="1" height="52" fill="#000000" />
<rect x="188" y="108" width="1" height="1" fill="#595652" />
<rect x="190" y="108" width="6" height="1" fill="#696A6A" />
<rect x="196" y="108" width="1" height="1" fill="#595652" />
<rect x="197" y="108" width="1" height="41" fill="#000000" />
<rect x="72" y="109" width="2" height="1" fill="#000000" />
<rect x="74" y="109" width="1" height="29" fill="#222034" />
<rect x="78" y="109" width="1" height="8" fill="#222034" />
<rect x="102" y="109" width="1" height="60" fill="#000000" />
<rect x="188" y="109" width="1" height="50" fill="#000000" />
<rect x="189" y="109" width="1" height="1" fill="#595652" />
<rect x="190" y="109" width="1" height="1" fill="#696A6A" />
<rect x="191" y="109" width="5" height="1" fill="#595652" />
<rect x="196" y="109" width="1" height="41" fill="#000000" />
<rect x="56" y="110" width="1" height="19" fill="#000000" />
<rect x="72" y="110" width="1" height="2" fill="#000000" />
<rect x="73" y="110" width="1" height="28" fill="#222034" />
<rect x="79" y="110" width="1" height="5" fill="#222034" />
<rect x="98" y="110" width="1" height="54" fill="#000000" />
<rect x="100" y="110" width="2" height="56" fill="#000000" />
<rect x="189" y="110" width="1" height="48" fill="#000000" />
<rect x="190" y="110" width="5" height="1" fill="#595652" />
<rect x="195" y="110" width="1" height="41" fill="#000000" />
<rect x="99" y="111" width="1" height="54" fill="#000000" />
<rect x="190" y="111" width="1" height="46" fill="#000000" />
<rect x="191" y="111" width="3" height="1" fill="#595652" />
<rect x="194" y="111" width="1" height="42" fill="#000000" />
<rect x="201" y="111" width="1" height="20" fill="#000000" />
<rect x="72" y="112" width="1" height="25" fill="#222034" />
<rect x="191" y="112" width="1" height="44" fill="#000000" />
<rect x="192" y="112" width="1" height="1" fill="#595652" />
<rect x="193" y="112" width="1" height="42" fill="#000000" />
<rect x="192" y="113" width="1" height="42" fill="#000000" />
<rect x="55" y="114" width="1" height="9" fill="#000000" />
<rect x="71" y="114" width="1" height="22" fill="#222034" />
<rect x="164" y="114" width="1" height="1" fill="#000000" />
<rect x="165" y="114" width="3" height="9" fill="#222034" />
<rect x="168" y="114" width="2" height="1" fill="#000000" />
<rect x="79" y="115" width="1" height="43" fill="#000000" />
<rect x="164" y="115" width="1" height="11" fill="#222034" />
<rect x="168" y="115" width="1" height="7" fill="#222034" />
<rect x="169" y="115" width="1" height="1" fill="#000000" />
<rect x="163" y="116" width="1" height="10" fill="#222034" />
<rect x="169" y="116" width="1" height="4" fill="#222034" />
<rect x="78" y="117" width="1" height="40" fill="#000000" />
<rect x="162" y="117" width="1" height="9" fill="#222034" />
<rect x="70" y="118" width="1" height="17" fill="#222034" />
<rect x="161" y="119" width="1" height="7" fill="#222034" />
<rect x="160" y="120" width="1" height="5" fill="#222034" />
<rect x="169" y="120" width="1" height="49" fill="#000000" />
<rect x="75" y="121" width="2" height="16" fill="#222034" />
<rect x="77" y="121" width="1" height="11" fill="#000000" />
<rect x="109" y="121" width="3" height="9" fill="#222034" />
<rect x="112" y="121" width="2" height="1" fill="#000000" />
<rect x="158" y="121" width="1" height="48" fill="#000000" />
<rect x="159" y="121" width="1" height="3" fill="#222034" />
<rect x="108" y="122" width="1" height="7" fill="#222034" />
<rect x="112" y="122" width="1" height="11" fill="#222034" />
<rect x="113" y="122" width="1" height="1" fill="#000000" />
<rect x="168" y="122" width="1" height="47" fill="#000000" />
<rect x="106" y="123" width="1" height="48" fill="#000000" />
<rect x="107" y="123" width="1" height="5" fill="#222034" />
<rect x="113" y="123" width="1" height="10" fill="#222034" />
<rect x="165" y="123" width="2" height="1" fill="#222034" />
<rect x="167" y="123" width="1" height="46" fill="#000000" />
<rect x="159" y="124" width="1" height="45" fill="#000000" />
<rect x="165" y="124" width="1" height="1" fill="#222034" />
<rect x="166" y="124" width="1" height="45" fill="#000000" />
<rect x="114" y="125" width="1" height="9" fill="#222034" />
<rect x="115" y="125" width="3" height="1" fill="#000000" />
<rect x="160" y="125" width="1" height="44" fill="#000000" />
<rect x="165" y="125" width="1" height="43" fill="#000000" />
<rect x="115" y="126" width="2" height="8" fill="#222034" />
<rect x="117" y="126" width="1" height="1" fill="#000000" />
<rect x="161" y="126" width="4" height="42" fill="#000000" />
<rect x="117" y="127" width="2" height="8" fill="#222034" />
<rect x="119" y="127" width="6" height="1" fill="#000000" />
<rect x="107" y="128" width="1" height="43" fill="#000000" />
<rect x="119" y="128" width="3" height="7" fill="#222034" />
<rect x="122" y="128" width="3" height="1" fill="#000000" />
<rect x="108" y="129" width="1" height="42" fill="#000000" />
<rect x="122" y="129" width="1" height="5" fill="#222034" />
<rect x="123" y="129" width="2" height="1" fill="#000000" />
<rect x="109" y="130" width="1" height="42" fill="#000000" />
<rect x="110" y="130" width="2" height="1" fill="#222034" />
<rect x="123" y="130" width="1" height="3" fill="#222034" />
<rect x="124" y="130" width="1" height="41" fill="#000000" />
<rect x="110" y="131" width="1" height="41" fill="#000000" />
<rect x="111" y="131" width="1" height="1" fill="#222034" />
<rect x="77" y="132" width="1" height="4" fill="#222034" />
<rect x="111" y="132" width="1" height="40" fill="#000000" />
<rect x="112" y="133" width="2" height="39" fill="#000000" />
<rect x="123" y="133" width="1" height="38" fill="#000000" />
<rect x="114" y="134" width="2" height="38" fill="#000000" />
<rect x="116" y="134" width="1" height="1" fill="#222034" />
<rect x="122" y="134" width="1" height="38" fill="#000000" />
<rect x="70" y="135" width="1" height="23" fill="#000000" />
<rect x="116" y="135" width="6" height="37" fill="#000000" />
<rect x="201" y="135" width="1" height="9" fill="#000000" />
<rect x="71" y="136" width="1" height="22" fill="#000000" />
<rect x="77" y="136" width="1" height="20" fill="#000000" />
<rect x="72" y="137" width="1" height="21" fill="#000000" />
<rect x="75" y="137" width="1" height="1" fill="#222034" />
<rect x="76" y="137" width="1" height="19" fill="#000000" />
<rect x="73" y="138" width="3" height="19" fill="#000000" />
<rect x="67" y="155" width="1" height="1" fill="#000000" />
<rect x="73" y="157" width="2" height="1" fill="#000000" />
<rect x="81" y="158" width="1" height="1" fill="#000000" />
<rect x="88" y="159" width="6" height="1" fill="#000000" />
<rect x="91" y="160" width="3" height="1" fill="#000000" />
<rect x="93" y="161" width="1" height="1" fill="#000000" />
<rect x="175" y="163" width="5" height="1" fill="#000000" />
<rect x="175" y="164" width="4" height="1" fill="#000000" />
<rect x="175" y="165" width="3" height="1" fill="#000000" />
<rect x="101" y="166" width="1" height="1" fill="#000000" />
<rect x="175" y="166" width="2" height="1" fill="#000000" />
<rect x="161" y="168" width="2" height="1" fill="#000000" />
<rect x="173" y="168" width="1" height="1" fill="#000000" />
<rect x="125" y="169" width="9" height="1" fill="#000000" />
<rect x="125" y="170" width="3" height="1" fill="#000000" />
</svg>